<svg width="40" height="40" viewBox="0 0 40 40" fill="none" xmlns="http://www.w3.org/2000/svg">
<path d="M20 3.33325C29.205 3.33325 36.6666 10.7949 36.6666 19.9999C36.6666 29.2049 29.205 36.6666 20 36.6666C10.795 36.6666 3.33331 29.2049 3.33331 19.9999C3.33331 10.7949 10.795 3.33325 20 3.33325ZM20 6.66659C12.6366 6.66659 6.66665 12.6366 6.66665 19.9999C6.66665 27.3633 12.6366 33.3333 20 33.3333C27.3633 33.3333 33.3333 27.3633 33.3333 19.9999C33.3333 12.6366 27.3633 6.66659 20 6.66659ZM26.3883 12.2283C26.7833 11.9516 27.32 11.9983 27.66 12.3399C28 12.6799 28.0433 13.2166 27.765 13.6066C24.1316 18.6833 22.1316 21.4033 21.7683 21.7683C20.7916 22.7433 19.2083 22.7433 18.2316 21.7683C17.2566 20.7916 17.2566 19.2083 18.2316 18.2316C18.855 17.6099 21.5733 15.6083 26.3883 12.2283ZM29.1666 18.3333C30.0866 18.3333 30.8333 19.0799 30.8333 19.9999C30.8333 20.9199 30.0866 21.6666 29.1666 21.6666C28.2466 21.6666 27.5 20.9199 27.5 19.9999C27.5 19.0799 28.2466 18.3333 29.1666 18.3333ZM10.8333 18.3333C11.7533 18.3333 12.5 19.0799 12.5 19.9999C12.5 20.9199 11.7533 21.6666 10.8333 21.6666C9.91331 21.6666 9.16665 20.9199 9.16665 19.9999C9.16665 19.0799 9.91331 18.3333 10.8333 18.3333ZM14.6966 12.3399C15.3466 12.9899 15.3466 14.0449 14.6966 14.6966C14.0466 15.3466 12.99 15.3466 12.34 14.6966C11.69 14.0466 11.69 12.9899 12.34 12.3399C12.99 11.6899 14.045 11.6899 14.6966 12.3399ZM20 9.16659C20.92 9.16659 21.6666 9.91325 21.6666 10.8333C21.6666 11.7533 20.92 12.4999 20 12.4999C19.08 12.4999 18.3333 11.7533 18.3333 10.8333C18.3333 9.91325 19.08 9.16659 20 9.16659Z" fill="#FE7600"/>
</svg>
