<svg width="48" height="48" viewBox="0 0 48 48" fill="none" xmlns="http://www.w3.org/2000/svg">
<g clip-path="url(#clip0_658_1661)">
<path d="M36.2222 30.2222C34.0089 30.2222 31.8756 29.8667 29.8756 29.2089C29.2622 29.0133 28.56 29.1556 28.0711 29.6444L24.16 33.5644C19.12 31.0044 15.0133 26.8889 12.4444 21.8578L16.3556 17.9378C16.8444 17.4489 16.9867 16.7467 16.7911 16.1333C16.1333 14.1333 15.7778 11.9911 15.7778 9.77778C15.7778 8.79111 14.9867 8 14 8H7.77778C6.79111 8 6 8.79111 6 9.77778C6 26.4711 19.5289 40 36.2222 40C37.2089 40 38 39.2089 38 38.2222V32C38 31.0133 37.2089 30.2222 36.2222 30.2222Z" fill="#FE7600"/>
</g>
<defs>
<clipPath id="clip0_658_1661">
<rect width="48" height="48" fill="white"/>
</clipPath>
</defs>
</svg>
