<svg width="48" height="48" viewBox="0 0 48 48" fill="none" xmlns="http://www.w3.org/2000/svg">
<g clip-path="url(#clip0_658_1666)">
<path d="M21.9922 6C13.4285 6 6.5 12.9362 6.5 21.5C6.5 30.0637 13.4285 37 21.9922 37C30.556 37 37.5 30.0637 37.5 21.5C37.5 12.9362 30.556 6 21.9922 6ZM22 33.9C15.149 33.9 9.6 28.351 9.6 21.5C9.6 14.649 15.149 9.1 22 9.1C28.851 9.1 34.4 14.649 34.4 21.5C34.4 28.351 28.851 33.9 22 33.9Z" fill="#FE7600"/>
<path d="M22 14H19.5V23.1803L28.2417 28L29.5 26.118L22 22.0328V14Z" fill="#FE7600"/>
</g>
<defs>
<clipPath id="clip0_658_1666">
<rect width="48" height="48" fill="white"/>
</clipPath>
</defs>
</svg>
