<svg width="30" height="30" viewBox="0 0 30 30" fill="none" xmlns="http://www.w3.org/2000/svg">
<path fill-rule="evenodd" clip-rule="evenodd" d="M16.0469 20.4573C16.0469 20.4573 16.4319 20.4153 16.6291 20.2074C16.8096 20.0169 16.8033 19.6574 16.8033 19.6574C16.8033 19.6574 16.7793 17.9787 17.5734 17.7308C18.3559 17.4871 19.3608 19.3542 20.4271 20.0722C21.2326 20.615 21.8441 20.4962 21.8441 20.4962L24.6936 20.4573C24.6936 20.4573 26.1836 20.3671 25.4772 19.217C25.4188 19.1227 25.0651 18.3658 23.3591 16.8111C21.5717 15.1836 21.8117 15.4468 23.9633 12.6313C25.2738 10.9167 25.7976 9.87 25.6338 9.42242C25.4783 8.9943 24.5142 9.10799 24.5142 9.10799L21.3067 9.12745C21.3067 9.12745 21.0688 9.0957 20.8925 9.19915C20.7203 9.30054 20.6087 9.53713 20.6087 9.53713C20.6087 9.53713 20.1016 10.8635 19.4244 11.9922C17.996 14.3724 17.4252 14.4984 17.1915 14.3509C16.6479 14.0058 16.7835 12.9662 16.7835 12.2277C16.7835 9.92019 17.1404 8.95845 16.0896 8.70957C15.7411 8.62661 15.4845 8.57233 14.5924 8.56311C13.4477 8.55184 12.4794 8.56721 11.9306 8.83043C11.5654 9.00557 11.2837 9.39682 11.4559 9.41935C11.6677 9.447 12.1476 9.54635 12.4022 9.88639C12.7309 10.3258 12.7194 11.3111 12.7194 11.3111C12.7194 11.3111 12.9083 14.0273 12.2781 14.3642C11.8461 14.5957 11.2534 14.1236 9.97942 11.9635C9.32728 10.8573 8.83479 9.63443 8.83479 9.63443C8.83479 9.63443 8.73984 9.40604 8.56976 9.28313C8.36421 9.13462 8.07727 9.08853 8.07727 9.08853L5.02946 9.10799C5.02946 9.10799 4.5714 9.12028 4.40341 9.3159C4.2542 9.489 4.39193 9.8485 4.39193 9.8485C4.39193 9.8485 6.77822 15.329 9.48066 18.0913C11.9588 20.6232 14.7718 20.4573 14.7718 20.4573H16.0469Z" fill="white"/>
</svg>
