<svg width="30" height="30" viewBox="0 0 30 30" fill="none" xmlns="http://www.w3.org/2000/svg">
<path d="M25.5819 14.707C25.5819 14.6009 25.4958 14.5131 25.3897 14.5082C21.5852 14.364 19.2698 13.8788 17.65 12.2589C16.0267 10.6358 15.5431 8.31862 15.399 4.50585C15.3957 4.39985 15.3079 4.31372 15.2003 4.31372H14.7564C14.6503 4.31372 14.5626 4.39985 14.5577 4.50585C14.4135 8.31696 13.9299 10.6358 12.3067 12.2589C10.6853 13.8805 8.37137 14.364 4.56688 14.5082C4.46088 14.5115 4.37476 14.5992 4.37476 14.707V15.1509C4.37476 15.2568 4.46088 15.3446 4.56688 15.3496C8.37137 15.4937 10.6868 15.979 12.3067 17.5988C13.9265 19.2187 14.4102 21.5292 14.556 25.327C14.5592 25.433 14.6471 25.5192 14.7547 25.5192H15.2003C15.3063 25.5192 15.394 25.433 15.399 25.327C15.5447 21.5292 16.0284 19.2187 17.6483 17.5988C19.2698 15.9773 21.5835 15.4937 25.3881 15.3496C25.4941 15.3463 25.5802 15.2585 25.5802 15.1509V14.707H25.5819Z" fill="white"/>
</svg>
