<svg width="30" height="30" viewBox="0 0 30 30" fill="none" xmlns="http://www.w3.org/2000/svg">
<path d="M24.9062 7.35514C25.7112 7.35514 26.3643 6.70225 26.3643 5.89681C26.3643 5.09137 25.7112 4.43848 24.9062 4.43848C24.1007 4.43848 23.4476 5.09137 23.4476 5.89681C23.4476 6.70225 24.1007 7.35514 24.9062 7.35514Z" fill="white"/>
<path d="M23.9233 13.5181C23.9233 12.6044 23.824 11.9323 23.6744 11.4555C23.537 11.0172 23.3018 10.6288 22.9507 10.2633C22.5791 9.92706 22.1723 9.68933 21.672 9.52589C21.1392 9.3776 20.4392 9.28345 19.5345 9.28345H4.6167V24.5732H7.26267V19.0297H17.0181L20.8616 24.5732H23.5595L19.5018 19.2393L20.9528 19.0142C22.1322 18.8311 22.8359 18.4196 23.2324 17.8949C23.6391 17.3562 23.9233 16.3634 23.9233 14.7951V13.5181ZM19.5282 13.4415C19.5282 13.2746 19.5054 13.1727 19.4872 13.1216L19.4854 13.117C19.4657 13.11 19.436 13.0996 19.3933 13.0898C19.2687 13.0609 19.0816 13.0387 18.8236 13.0387H9.01267V15.2745H17.9486L18.8236 15.2736C19.0958 15.2736 19.2897 15.2566 19.4188 15.2307C19.4475 15.225 19.4691 15.2164 19.4863 15.2116C19.5048 15.156 19.5282 15.049 19.5282 14.8716V13.4415ZM25.6733 14.7951C25.6733 16.4961 25.3788 17.9563 24.6278 18.9504C24.1206 19.6216 23.4222 20.0923 22.5834 20.3996L27.0905 26.3232H19.9447L16.102 20.7797H9.01267V26.3232H2.8667V7.53345H19.5345C20.5662 7.53345 21.4394 7.64177 22.1678 7.8479L22.1987 7.85702C22.8542 8.06898 23.4235 8.37858 23.936 8.80128L24.153 8.98995L24.1712 9.00636L24.1885 9.02459C24.7227 9.57359 25.1152 10.2015 25.3443 10.9313C25.5632 11.6296 25.6733 12.4905 25.6733 13.5181V14.7951ZM21.2782 14.8716C21.2782 15.5022 21.1184 16.1436 20.6274 16.5606C20.3602 16.7874 20.0356 16.8913 19.7625 16.9461C19.7416 16.9503 19.7199 16.9524 19.6986 16.9561V17.0245H7.26267V11.2887H18.8236C19.1708 11.2887 19.4971 11.3175 19.7871 11.3844C20.0319 11.4409 20.2981 11.536 20.5298 11.7025L20.6274 11.7782L20.7149 11.8574C21.1338 12.2698 21.2782 12.8655 21.2782 13.4415V14.8716Z" fill="white"/>
</svg>
