<svg width="30" height="30" viewBox="0 0 30 30" fill="none" xmlns="http://www.w3.org/2000/svg">
<path d="M8.24346 14.374C13.0495 12.26 19.2675 9.68303 20.1265 9.32603C22.3775 8.39302 23.0685 8.57102 22.7245 10.639C22.4765 12.126 21.7635 17.046 21.1945 20.109C20.8565 21.925 20.0985 22.14 18.9085 21.354C18.3355 20.976 15.4445 19.064 14.8165 18.615C14.2445 18.206 13.4545 17.715 14.4445 16.745C14.7975 16.4 17.1085 14.193 18.9085 12.475C19.1445 12.25 18.8485 11.879 18.5765 12.06C16.1495 13.67 12.7845 15.903 12.3565 16.194C11.7095 16.634 11.0875 16.834 9.97246 16.514C9.12946 16.273 8.30646 15.984 7.98646 15.874C6.75246 15.45 7.04546 14.902 8.24346 14.374Z" fill="white"/>
</svg>
