<svg width="30" height="30" viewBox="0 0 30 30" fill="none" xmlns="http://www.w3.org/2000/svg">
<path fill-rule="evenodd" clip-rule="evenodd" d="M13.1333 17.7999V12.1999L17.8 15.0102L13.1333 17.7999ZM24.1466 11.2852C24.1466 11.2852 23.9641 10.0055 23.4052 9.44136C22.6947 8.70092 21.8993 8.69781 21.5343 8.65426C18.922 8.46655 15.0041 8.46655 15.0041 8.46655H14.9959C14.9959 8.46655 11.0779 8.46655 8.46559 8.65426C8.10055 8.69781 7.30515 8.70092 6.59477 9.44136C6.03477 10.0055 5.85329 11.2852 5.85329 11.2852C5.85329 11.2852 5.66663 12.7889 5.66663 14.2926V15.7019C5.66663 17.2056 5.85329 18.7083 5.85329 18.7083C5.85329 18.7083 6.03582 19.988 6.59477 20.5522C7.30515 21.2926 8.23848 21.2688 8.65329 21.3466C10.1466 21.4886 15 21.5332 15 21.5332C15 21.5332 18.922 21.527 21.5343 21.3393C21.8993 21.2958 22.6947 21.2926 23.4052 20.5512C23.9641 19.988 24.1466 18.7083 24.1466 18.7083C24.1466 18.7083 24.3333 17.2046 24.3333 15.7009V14.2916C24.3333 12.7879 24.1466 11.2852 24.1466 11.2852Z" fill="white"/>
</svg>
