<svg width="47" height="60" viewBox="0 0 47 60" fill="none" xmlns="http://www.w3.org/2000/svg">
<path d="M0 60C0 53.9379 2.47589 48.1241 6.88299 43.8376C11.2901 39.551 17.2674 37.1429 23.5 37.1429C29.7326 37.1429 35.7099 39.551 40.117 43.8376C44.5241 48.1241 47 53.9379 47 60H41.125C41.125 55.4534 39.2681 51.0931 35.9628 47.8782C32.6574 44.6633 28.1744 42.8571 23.5 42.8571C18.8256 42.8571 14.3426 44.6633 11.0372 47.8782C7.73191 51.0931 5.875 55.4534 5.875 60H0ZM23.5 34.2857C13.7622 34.2857 5.875 26.6143 5.875 17.1429C5.875 7.67143 13.7622 0 23.5 0C33.2378 0 41.125 7.67143 41.125 17.1429C41.125 26.6143 33.2378 34.2857 23.5 34.2857ZM23.5 28.5714C29.9919 28.5714 35.25 23.4571 35.25 17.1429C35.25 10.8286 29.9919 5.71429 23.5 5.71429C17.0081 5.71429 11.75 10.8286 11.75 17.1429C11.75 23.4571 17.0081 28.5714 23.5 28.5714Z" fill="#FE7600"/>
</svg>
