<svg width="56" height="50" viewBox="0 0 56 50" fill="none" xmlns="http://www.w3.org/2000/svg">
<path d="M21.3818 18.2143H5.09091C3.74072 18.2143 2.44583 18.7214 1.4911 19.624C0.536365 20.5267 2.70912e-06 21.7509 2.70912e-06 23.0275V28.0909C-0.000683597 28.7199 0.129034 29.3429 0.381821 29.9248L8.26255 48.0079C8.45417 48.4489 8.78002 48.8262 9.19877 49.0918C9.61751 49.3575 10.1103 49.4995 10.6145 49.5H53.4545C54.1296 49.5 54.7771 49.2464 55.2545 48.7951C55.7318 48.3438 56 47.7317 56 47.0934V23.0275C56 22.3892 55.7318 21.7771 55.2545 21.3257C54.7771 20.8744 54.1296 20.6209 53.4545 20.6209H44.5913C44.1838 20.621 43.7822 20.5286 43.4203 20.3514C43.0584 20.1743 42.7468 19.9176 42.5116 19.6029L28.6313 1.00952C28.4558 0.774429 28.197 0.606564 27.9019 0.536362C27.6068 0.46616 27.2948 0.498272 27.0225 0.626873L22.4051 2.81206C21.1056 3.42614 20.0675 4.44209 19.4632 5.69111C18.8589 6.94014 18.7249 8.34704 19.0833 9.67807L21.3818 18.2143ZM40.7273 24.4425V44.6868H12.32L5.09091 28.0909V23.0275H21.3818C22.1572 23.0274 22.9222 22.8598 23.6187 22.5376C24.3151 22.2154 24.9245 21.7471 25.4004 21.1683C25.8763 20.5896 26.206 19.9157 26.3645 19.1981C26.523 18.4806 26.506 17.7382 26.3149 17.0278L24.0164 8.48922C23.9444 8.22287 23.9711 7.94127 24.092 7.69126C24.2129 7.44125 24.4206 7.2379 24.6807 7.11506L26.3633 6.32088L38.3524 22.3777C38.9887 23.2296 39.8033 23.9275 40.7273 24.4425ZM45.8182 25.4341H50.9091V44.6868H45.8182V25.4341Z" fill="#FE7600"/>
</svg>
