<svg width="60" height="57" viewBox="0 0 60 57" fill="none" xmlns="http://www.w3.org/2000/svg">
<path d="M30 57C13.431 57 0 44.2405 0 28.5C0 12.7594 13.431 0 30 0C46.569 0 60 12.7594 60 28.5C60 44.2405 46.569 57 30 57ZM30 51.3C36.3652 51.3 42.4697 48.8979 46.9706 44.622C51.4714 40.3462 54 34.5469 54 28.5C54 22.4531 51.4714 16.6538 46.9706 12.378C42.4697 8.10214 36.3652 5.7 30 5.7C23.6348 5.7 17.5303 8.10214 13.0294 12.378C8.52856 16.6538 6 22.4531 6 28.5C6 34.5469 8.52856 40.3462 13.0294 44.622C17.5303 48.8979 23.6348 51.3 30 51.3ZM27.009 39.9L14.28 27.8074L18.522 23.7775L27.009 31.8402L43.977 15.7177L48.222 19.7476L27.009 39.9Z" fill="#FE7600"/>
</svg>
