<svg width="58" height="52" viewBox="0 0 58 52" fill="none" xmlns="http://www.w3.org/2000/svg">
<path d="M42.05 0C50.8602 0 58 7.02703 58 16.8649C58 36.5405 36.25 47.7838 29 52C21.75 47.7838 0 36.5405 0 16.8649C0 7.02703 7.25 0 15.95 0C21.344 0 26.1 2.81081 29 5.62162C31.9 2.81081 36.656 0 42.05 0ZM31.7086 43.8599C34.2635 42.2971 36.569 40.7427 38.7266 39.0787C47.3715 32.4171 52.2 25.1371 52.2 16.8649C52.2 10.2314 47.7427 5.62162 42.05 5.62162C38.9296 5.62162 35.554 7.22378 33.1006 9.59611L29 13.5706L24.8994 9.59611C22.446 7.22378 19.0704 5.62162 15.95 5.62162C10.324 5.62162 5.8 10.2763 5.8 16.8649C5.8 25.1399 10.6314 32.4171 19.2705 39.0787C21.431 40.7427 23.7365 42.2971 26.2914 43.8571C27.1585 44.3883 28.0169 44.8971 29 45.4649C29.9831 44.8971 30.8415 44.3883 31.7086 43.8599Z" fill="#FE7600"/>
</svg>
