<svg width="48" height="48" viewBox="0 0 48 48" fill="none" xmlns="http://www.w3.org/2000/svg">
<path d="M23.1633 30.1987C23.5538 29.8081 24.187 29.8081 24.5775 30.1987L41.932 47.5532C42.3226 47.9437 42.9557 47.9437 43.3463 47.5532L47.2935 43.606C47.684 43.2155 47.684 42.5823 47.2935 42.1918L29.9389 24.8373C29.5484 24.4467 29.5484 23.8136 29.9389 23.423L47.2935 6.0685C47.684 5.67798 47.684 5.04482 47.2935 4.65429L43.3463 0.707088C42.9557 0.316563 42.3226 0.316563 41.932 0.707088L24.5775 18.0616C24.187 18.4522 23.5538 18.4522 23.1633 18.0616L5.80876 0.707088C5.41823 0.316563 4.78507 0.316563 4.39454 0.707088L0.447342 4.65429C0.0568174 5.04482 0.0568168 5.67798 0.447341 6.0685L17.8019 23.423C18.1924 23.8136 18.1924 24.4467 17.8019 24.8373L0.447341 42.1918C0.0568165 42.5823 0.056817 43.2155 0.447341 43.606L4.39454 47.5532C4.78507 47.9437 5.41823 47.9437 5.80876 47.5532L23.1633 30.1987Z" fill="#F8F8F8"/>
</svg>
