<svg width="20" height="21" viewBox="0 0 20 21" fill="none" xmlns="http://www.w3.org/2000/svg">
<g clip-path="url(#clip0_658_1512)">
<path d="M16.5164 14.634L13.641 11.729C13.4936 11.58 13.3461 11.58 13.1987 11.58C13.0512 11.58 12.9037 11.6545 12.7562 11.729L12.019 12.4739L11.9453 12.5483L11.3555 13.1442C10.692 12.6228 9.95466 11.9524 9.29111 11.282C8.62757 10.6117 7.96403 9.86678 7.44794 9.19639L8.03779 8.60047L8.84877 7.78113C8.99622 7.63215 8.99619 7.48317 8.99619 7.33419C8.99619 7.18522 8.9225 7.03624 8.84877 6.88726L5.9734 3.98224C5.82594 3.83326 5.67851 3.83325 5.53105 3.83325C5.3836 3.83325 5.23616 3.90775 5.08871 3.98224L3.68788 5.3975C3.09806 5.99341 3.2455 7.11072 4.13022 8.67497C4.86749 10.0158 6.04711 11.5055 7.52165 12.9208C10.0284 15.4534 12.6088 17.1666 14.0097 17.1666C14.5257 17.1666 14.8206 16.9431 14.9681 16.7941L16.3689 15.3789C16.7375 15.2299 16.7376 14.8575 16.5164 14.634Z" stroke="white" stroke-width="1.33333"/>
</g>
<defs>
<clipPath id="clip0_658_1512">
<rect width="20" height="20" fill="white" transform="translate(0 0.5)"/>
</clipPath>
</defs>
</svg>
