<svg width="20" height="21" viewBox="0 0 20 21" fill="none" xmlns="http://www.w3.org/2000/svg">
<g clip-path="url(#clip0_666_195)">
<path d="M14.0616 11.8867L14.0732 11.8707L14.0839 11.854C14.3377 11.4575 14.5516 11.0183 14.6865 10.5508C14.8349 10.0849 14.901 9.60321 14.8857 9.10921C14.8824 7.58868 14.1932 6.16073 12.9788 5.22424C11.7575 4.26808 10.1807 3.96228 8.67055 4.33577C6.47203 4.88127 4.99341 6.8199 4.99341 9.12026C4.99341 9.62062 5.07673 10.0971 5.20571 10.5324L5.20635 10.5346C5.35408 11.027 5.56854 11.4726 5.84811 11.8837L5.85403 11.8924L5.86023 11.9009C5.89882 11.954 6.15782 12.3091 6.53541 12.8268C7.27228 13.8371 8.46077 15.4666 9.34391 16.6786L9.35275 16.6907L9.36213 16.7024C9.48793 16.8597 9.73055 17.0355 10.0587 16.9886C10.3213 16.9511 10.4845 16.7895 10.5659 16.6755C11.8134 14.9814 13.6383 12.4694 14.002 11.9686C14.0326 11.9266 14.0528 11.8987 14.0616 11.8867Z" stroke="white" stroke-width="1.33333"/>
<path d="M11.9992 9.17141V9.16088C11.9992 8.06329 11.1032 7.16675 9.99927 7.16675C8.89915 7.16675 7.99927 8.04771 7.99927 9.16088C7.99927 10.2664 8.89148 11.1667 9.99927 11.1667C11.1165 11.1667 11.982 10.259 11.9992 9.17141Z" stroke="white" stroke-width="1.33333"/>
</g>
<defs>
<clipPath id="clip0_666_195">
<rect width="20" height="20" fill="white" transform="translate(0 0.5)"/>
</clipPath>
</defs>
</svg>
