<svg width="14" height="14" viewBox="0 0 14 14" fill="none" xmlns="http://www.w3.org/2000/svg">
<path d="M0 7C0 5.61553 0.410295 4.26215 1.179 3.11101C1.94771 1.95987 3.0403 1.06266 4.31861 0.532846C5.59692 0.003033 7.00354 -0.13559 8.36059 0.134506C9.71763 0.404603 10.9642 1.07129 11.9425 2.05026C12.9209 3.02922 13.5872 4.2765 13.8571 5.63437C14.1271 6.99224 13.9885 8.3997 13.459 9.67879C12.9295 10.9579 12.0329 12.0511 10.8824 12.8203C9.73197 13.5895 8.37941 14 6.99578 14C5.14101 13.9979 3.3628 13.2598 2.05129 11.9475C0.739771 10.6352 0.00205742 8.85588 0 7H0ZM1.07579 7C1.07579 8.17157 1.423 9.31683 2.07349 10.291C2.72399 11.2651 3.64856 12.0243 4.7303 12.4727C5.81203 12.921 7.00234 13.0383 8.15071 12.8097C9.29907 12.5812 10.3539 12.017 11.1818 11.1886C12.0098 10.3602 12.5736 9.30469 12.802 8.15563C13.0304 7.00657 12.9132 5.81554 12.4651 4.73316C12.0171 3.65077 11.2583 2.72563 10.2847 2.07475C9.31121 1.42386 8.16664 1.07645 6.99578 1.07645C5.42621 1.07809 3.92139 1.70271 2.81154 2.81324C1.70168 3.92376 1.07744 5.42948 1.07579 7ZM8.52086 10.0053L6.6149 8.099C6.5148 7.9975 6.45891 7.86049 6.45943 7.71789V3.98456C6.45943 3.84181 6.5161 3.70491 6.61698 3.60398C6.71786 3.50304 6.85467 3.44634 6.99733 3.44634C7.13999 3.44634 7.27681 3.50304 7.37768 3.60398C7.47856 3.70491 7.53523 3.84181 7.53523 3.98456V7.49467L9.28262 9.24311C9.33396 9.29275 9.37491 9.35212 9.40309 9.41775C9.43126 9.48339 9.4461 9.55398 9.44673 9.62541C9.44736 9.69684 9.43377 9.76769 9.40676 9.83381C9.37975 9.89993 9.33985 9.96002 9.2894 10.0106C9.23894 10.0611 9.17894 10.1011 9.11288 10.1282C9.04682 10.1553 8.97604 10.1689 8.90465 10.1684C8.83326 10.1678 8.76269 10.153 8.69707 10.1249C8.63144 10.0968 8.57207 10.0559 8.52241 10.0046L8.52086 10.0053Z" fill="white"/>
</svg>
