<svg width="80" height="80" viewBox="0 0 80 80" fill="none" xmlns="http://www.w3.org/2000/svg">
<path d="M39.9998 73.3334C21.5898 73.3334 6.6665 58.4101 6.6665 40.0001C6.6665 21.5901 21.5898 6.66675 39.9998 6.66675C58.4098 6.66675 73.3332 21.5901 73.3332 40.0001C73.3332 58.4101 58.4098 73.3334 39.9998 73.3334ZM39.9998 66.6668C47.0723 66.6668 53.8551 63.8572 58.856 58.8563C63.857 53.8553 66.6665 47.0725 66.6665 40.0001C66.6665 32.9276 63.857 26.1449 58.856 21.1439C53.8551 16.1429 47.0723 13.3334 39.9998 13.3334C32.9274 13.3334 26.1446 16.1429 21.1437 21.1439C16.1427 26.1449 13.3332 32.9276 13.3332 40.0001C13.3332 47.0725 16.1427 53.8553 21.1437 58.8563C26.1446 63.8572 32.9274 66.6668 39.9998 66.6668ZM28.3332 46.6667H46.6665C47.1085 46.6667 47.5325 46.4912 47.845 46.1786C48.1576 45.866 48.3332 45.4421 48.3332 45.0001C48.3332 44.5581 48.1576 44.1341 47.845 43.8216C47.5325 43.509 47.1085 43.3334 46.6665 43.3334H33.3332C31.123 43.3334 29.0034 42.4554 27.4406 40.8926C25.8778 39.3298 24.9998 37.2102 24.9998 35.0001C24.9998 32.7899 25.8778 30.6703 27.4406 29.1075C29.0034 27.5447 31.123 26.6667 33.3332 26.6667H36.6665V20.0001H43.3332V26.6667H51.6665V33.3334H33.3332C32.8911 33.3334 32.4672 33.509 32.1547 33.8216C31.8421 34.1341 31.6665 34.5581 31.6665 35.0001C31.6665 35.4421 31.8421 35.866 32.1547 36.1786C32.4672 36.4912 32.8911 36.6667 33.3332 36.6667H46.6665C48.8766 36.6667 50.9963 37.5447 52.5591 39.1075C54.1219 40.6703 54.9998 42.7899 54.9998 45.0001C54.9998 47.2102 54.1219 49.3298 52.5591 50.8926C50.9963 52.4554 48.8766 53.3334 46.6665 53.3334H43.3332V60.0001H36.6665V53.3334H28.3332V46.6667Z" fill="#FE7600"/>
</svg>
