<svg width="80" height="80" viewBox="0 0 80 80" fill="none" xmlns="http://www.w3.org/2000/svg">
<g clip-path="url(#clip0_864_462)">
<path d="M63.0667 16.6999C62.3833 14.7333 60.5167 13.3333 58.3333 13.3333H21.6667C19.4833 13.3333 17.6167 14.7333 16.9333 16.6999L10 36.6666V63.3333C10 65.1666 11.5 66.6666 13.3333 66.6666H16.6667C18.5167 66.6666 20 65.1666 20 63.3333V59.9999H60V63.3333C60 65.1666 61.5 66.6666 63.3333 66.6666H66.6667C68.5167 66.6666 70 65.1666 70 63.3333V36.6666L63.0667 16.6999ZM21.6667 49.9999C18.9 49.9999 16.6667 47.7666 16.6667 44.9999C16.6667 42.2333 18.9 39.9999 21.6667 39.9999C24.4333 39.9999 26.6667 42.2333 26.6667 44.9999C26.6667 47.7666 24.4333 49.9999 21.6667 49.9999ZM58.3333 49.9999C55.5667 49.9999 53.3333 47.7666 53.3333 44.9999C53.3333 42.2333 55.5667 39.9999 58.3333 39.9999C61.1 39.9999 63.3333 42.2333 63.3333 44.9999C63.3333 47.7666 61.1 49.9999 58.3333 49.9999ZM16.6667 33.3333L21.6667 18.3333H58.3333L63.3333 33.3333H16.6667Z" fill="#FE7600"/>
</g>
<defs>
<clipPath id="clip0_864_462">
<rect width="80" height="80" fill="white"/>
</clipPath>
</defs>
</svg>
